# xmcd
#
# Track frame offsets:
#	150
#	17153
#	33516
#	49600
#	67094
#	83379
#	99397
#	118191
#	135311
#	150680
#	164853
#	177888
#	195928
#	209551
#	222884
#	243787
#	259007
#	273417
#	291217
#	307200
#
# Disc length: 4336 seconds
#
# Revision: 1
# Processed by: cddbd v1.5.2PL0 Copyright (c) Steve Scherf et al.
# Submitted via: EZCDAudioConverter 7.0.7.1
#
DISCID=2010ee14
DTITLE=Nu Urban Traxx Volume 245 US
DYEAR=2018
DGENRE=blues
TTITLE0=Justin Timberlake - Supplies
TTITLE1=Bruno Mars and Cardi B - Finesse
TTITLE2=Cardi B ft. 21 Savage - Bartier Cardi
TTITLE3=SZA - Broken Clocks
TTITLE4=Lil Baby - My Dawg
TTITLE5=DJ Luke Nasty ft. Rotimi - Last Night
TTITLE6=Jeezy ft. Cole and K Dot - American Dream
TTITLE7=Dej Loaf - Big Ole Boss
TTITLE8=A$AP Ferg ft. Nicki Minaj - Plain Jane [Remix]
TTITLE9=Lil Xan - Betrayed
TTITLE10=SZA ft. Calvin Harris - The Weekend [Funk Wav Remix]
TTITLE11=Ncredible Gang ft. Nick Cannon, Jeremih and Ty Money - Dream Girl
TTITLE12=Jeezy - This Is It
TTITLE13=Gashi - Used To Be
TTITLE14=G-Eazy ft. A$AP Rocky, French Montana, Juicy J and Belly - No Limit [
TTITLE14=Remix]
TTITLE15=Keke Palmer - Bossy
TTITLE16=Trevor Jackson - Night Time
TTITLE17=Ledisi - All The Way
TTITLE18=Mr. Dalvin ft. Goodz - Vindication (Get Money)
TTITLE19=Flyy Drexler - Bring You Down
EXTD=
EXTT0=
EXTT1=
EXTT2=
EXTT3=
EXTT4=
EXTT5=
EXTT6=
EXTT7=
EXTT8=
EXTT9=
EXTT10=
EXTT11=
EXTT12=
EXTT13=
EXTT14=
EXTT15=
EXTT16=
EXTT17=
EXTT18=
EXTT19=
PLAYORDER=
